<svg width="20" height="20" viewBox="0 0 20 20" fill="currentColor" xmlns="http://www.w3.org/2000/svg">
<g id="MENU">
<path id="Vector" d="M15.4167 6.66665C17.025 6.66665 18.3333 5.35831 18.3333 3.74998C18.3333 2.14165 17.025 0.833313 15.4167 0.833313C13.8083 0.833313 12.5 2.14165 12.5 3.74998C12.5 5.35831 13.8083 6.66665 15.4167 6.66665ZM15.4167 8.33331C15.8333 8.33331 16.25 8.27498 16.6667 8.15831V13.3333C16.6667 15.6333 14.8 17.5 12.5 17.5H5.83333C3.53333 17.5 1.66667 15.6333 1.66667 13.3333V6.66665C1.66667 4.36665 3.53333 2.49998 5.83333 2.49998H11.0083C10.8917 2.91665 10.8333 3.33331 10.8333 3.74998C10.8333 6.28331 12.8833 8.33331 15.4167 8.33331Z" fill="#A3A9B6"/>
</g>
</svg>
