<svg width="20" height="21" viewBox="0 0 20 21" fill="none" xmlns="http://www.w3.org/2000/svg">
<path d="M18.086 15.034L11.5786 3.77325C10.877 2.54543 9.12301 2.54543 8.40387 3.77325L1.91401 15.034C1.2124 16.2443 2.08941 17.7703 3.49262 17.7703H16.4899C17.9106 17.7703 18.7876 16.2443 18.086 15.034ZM10 6.57967C10.5613 6.57967 10.9998 7.03572 10.9998 7.57946V7.64962L10.6665 12.6661C10.649 13.0169 10.3508 13.2976 10 13.2976C9.64922 13.2976 9.35104 13.0169 9.3335 12.6661L9.00023 7.64962C8.96515 7.0708 9.4212 6.57967 10 6.57967ZM10 15.9461C9.4212 15.9461 8.94761 15.4725 8.94761 14.8937C8.94761 14.3149 9.4212 13.8413 10 13.8413C10.5788 13.8413 11.0524 14.3149 11.0524 14.8937C11.0524 15.4725 10.5788 15.9461 10 15.9461Z" fill="currentColor"/>
</svg>
