<svg width="20" height="21" viewBox="0 0 20 21" fill="none" xmlns="http://www.w3.org/2000/svg">
<g id="MENU">
<g id="Vector">
<path d="M16.2501 2.09413L17.4251 3.26913L13.6751 7.01913H16.6667V8.6858H10.8334V2.85246H12.5001V5.84413L16.2501 2.09413ZM17.4251 15.7691L16.2501 16.9441L12.5001 13.1941V16.1858H10.8334V10.3525H16.6667V12.0191H13.6751L17.4251 15.7691ZM3.75007 2.09413L7.50007 5.84413V2.85246H9.16674V8.6858H3.33341V7.01913H6.32507L2.57507 3.26913L3.75007 2.09413ZM2.57507 15.7691L6.32507 12.0191H3.33341V10.3525H9.16674V16.1858H7.50007V13.1941L3.75007 16.9441L2.57507 15.7691Z" fill="#00481D"/>
<path d="M16.2501 2.09413L17.4251 3.26913L13.6751 7.01913H16.6667V8.6858H10.8334V2.85246H12.5001V5.84413L16.2501 2.09413ZM17.4251 15.7691L16.2501 16.9441L12.5001 13.1941V16.1858H10.8334V10.3525H16.6667V12.0191H13.6751L17.4251 15.7691ZM3.75007 2.09413L7.50007 5.84413V2.85246H9.16674V8.6858H3.33341V7.01913H6.32507L2.57507 3.26913L3.75007 2.09413ZM2.57507 15.7691L6.32507 12.0191H3.33341V10.3525H9.16674V16.1858H7.50007V13.1941L3.75007 16.9441L2.57507 15.7691Z" fill="currentColor" fill-opacity="0.2"/>
<path d="M16.2501 2.09413L17.4251 3.26913L13.6751 7.01913H16.6667V8.6858H10.8334V2.85246H12.5001V5.84413L16.2501 2.09413ZM17.4251 15.7691L16.2501 16.9441L12.5001 13.1941V16.1858H10.8334V10.3525H16.6667V12.0191H13.6751L17.4251 15.7691ZM3.75007 2.09413L7.50007 5.84413V2.85246H9.16674V8.6858H3.33341V7.01913H6.32507L2.57507 3.26913L3.75007 2.09413ZM2.57507 15.7691L6.32507 12.0191H3.33341V10.3525H9.16674V16.1858H7.50007V13.1941L3.75007 16.9441L2.57507 15.7691Z" fill="currentColor" fill-opacity="0.2"/>
<path d="M16.2501 2.09413L17.4251 3.26913L13.6751 7.01913H16.6667V8.6858H10.8334V2.85246H12.5001V5.84413L16.2501 2.09413ZM17.4251 15.7691L16.2501 16.9441L12.5001 13.1941V16.1858H10.8334V10.3525H16.6667V12.0191H13.6751L17.4251 15.7691ZM3.75007 2.09413L7.50007 5.84413V2.85246H9.16674V8.6858H3.33341V7.01913H6.32507L2.57507 3.26913L3.75007 2.09413ZM2.57507 15.7691L6.32507 12.0191H3.33341V10.3525H9.16674V16.1858H7.50007V13.1941L3.75007 16.9441L2.57507 15.7691Z" fill="currentColor" fill-opacity="0.2"/>
<path d="M16.2501 2.09413L17.4251 3.26913L13.6751 7.01913H16.6667V8.6858H10.8334V2.85246H12.5001V5.84413L16.2501 2.09413ZM17.4251 15.7691L16.2501 16.9441L12.5001 13.1941V16.1858H10.8334V10.3525H16.6667V12.0191H13.6751L17.4251 15.7691ZM3.75007 2.09413L7.50007 5.84413V2.85246H9.16674V8.6858H3.33341V7.01913H6.32507L2.57507 3.26913L3.75007 2.09413ZM2.57507 15.7691L6.32507 12.0191H3.33341V10.3525H9.16674V16.1858H7.50007V13.1941L3.75007 16.9441L2.57507 15.7691Z" fill="currentColor" fill-opacity="0.2"/>
<path d="M16.2501 2.09413L17.4251 3.26913L13.6751 7.01913H16.6667V8.6858H10.8334V2.85246H12.5001V5.84413L16.2501 2.09413ZM17.4251 15.7691L16.2501 16.9441L12.5001 13.1941V16.1858H10.8334V10.3525H16.6667V12.0191H13.6751L17.4251 15.7691ZM3.75007 2.09413L7.50007 5.84413V2.85246H9.16674V8.6858H3.33341V7.01913H6.32507L2.57507 3.26913L3.75007 2.09413ZM2.57507 15.7691L6.32507 12.0191H3.33341V10.3525H9.16674V16.1858H7.50007V13.1941L3.75007 16.9441L2.57507 15.7691Z" fill="currentColor" fill-opacity="0.2"/>
<path d="M16.2501 2.09413L17.4251 3.26913L13.6751 7.01913H16.6667V8.6858H10.8334V2.85246H12.5001V5.84413L16.2501 2.09413ZM17.4251 15.7691L16.2501 16.9441L12.5001 13.1941V16.1858H10.8334V10.3525H16.6667V12.0191H13.6751L17.4251 15.7691ZM3.75007 2.09413L7.50007 5.84413V2.85246H9.16674V8.6858H3.33341V7.01913H6.32507L2.57507 3.26913L3.75007 2.09413ZM2.57507 15.7691L6.32507 12.0191H3.33341V10.3525H9.16674V16.1858H7.50007V13.1941L3.75007 16.9441L2.57507 15.7691Z" fill="currentColor" fill-opacity="0.2"/>
<path d="M16.2501 2.09413L17.4251 3.26913L13.6751 7.01913H16.6667V8.6858H10.8334V2.85246H12.5001V5.84413L16.2501 2.09413ZM17.4251 15.7691L16.2501 16.9441L12.5001 13.1941V16.1858H10.8334V10.3525H16.6667V12.0191H13.6751L17.4251 15.7691ZM3.75007 2.09413L7.50007 5.84413V2.85246H9.16674V8.6858H3.33341V7.01913H6.32507L2.57507 3.26913L3.75007 2.09413ZM2.57507 15.7691L6.32507 12.0191H3.33341V10.3525H9.16674V16.1858H7.50007V13.1941L3.75007 16.9441L2.57507 15.7691Z" fill="currentColor" fill-opacity="0.2"/>
<path d="M16.2501 2.09413L17.4251 3.26913L13.6751 7.01913H16.6667V8.6858H10.8334V2.85246H12.5001V5.84413L16.2501 2.09413ZM17.4251 15.7691L16.2501 16.9441L12.5001 13.1941V16.1858H10.8334V10.3525H16.6667V12.0191H13.6751L17.4251 15.7691ZM3.75007 2.09413L7.50007 5.84413V2.85246H9.16674V8.6858H3.33341V7.01913H6.32507L2.57507 3.26913L3.75007 2.09413ZM2.57507 15.7691L6.32507 12.0191H3.33341V10.3525H9.16674V16.1858H7.50007V13.1941L3.75007 16.9441L2.57507 15.7691Z" fill="currentColor" fill-opacity="0.2"/>
<path d="M16.2501 2.09413L17.4251 3.26913L13.6751 7.01913H16.6667V8.6858H10.8334V2.85246H12.5001V5.84413L16.2501 2.09413ZM17.4251 15.7691L16.2501 16.9441L12.5001 13.1941V16.1858H10.8334V10.3525H16.6667V12.0191H13.6751L17.4251 15.7691ZM3.75007 2.09413L7.50007 5.84413V2.85246H9.16674V8.6858H3.33341V7.01913H6.32507L2.57507 3.26913L3.75007 2.09413ZM2.57507 15.7691L6.32507 12.0191H3.33341V10.3525H9.16674V16.1858H7.50007V13.1941L3.75007 16.9441L2.57507 15.7691Z" fill="currentColor" fill-opacity="0.2"/>
<path d="M16.2501 2.09413L17.4251 3.26913L13.6751 7.01913H16.6667V8.6858H10.8334V2.85246H12.5001V5.84413L16.2501 2.09413ZM17.4251 15.7691L16.2501 16.9441L12.5001 13.1941V16.1858H10.8334V10.3525H16.6667V12.0191H13.6751L17.4251 15.7691ZM3.75007 2.09413L7.50007 5.84413V2.85246H9.16674V8.6858H3.33341V7.01913H6.32507L2.57507 3.26913L3.75007 2.09413ZM2.57507 15.7691L6.32507 12.0191H3.33341V10.3525H9.16674V16.1858H7.50007V13.1941L3.75007 16.9441L2.57507 15.7691Z" fill="currentColor" fill-opacity="0.2"/>
</g>
</g>
</svg>
