<svg width="20" height="21" viewBox="0 0 20 21" fill="none" xmlns="http://www.w3.org/2000/svg">
<g id="MENU">
<path id="Vector" d="M12.0286 3.96394V2.01904H5.56212C4.79127 2.01904 4.16667 2.64409 4.16667 3.41449V16.5828C4.16667 17.3537 4.79127 17.9783 5.56212 17.9783H13.8876C14.6584 17.9783 15.283 17.3532 15.283 16.5828V5.27344H13.3381C12.6159 5.27344 12.0286 4.68574 12.0286 3.96394ZM12.912 13.8644H6.53772C6.47067 13.8644 6.41667 13.8104 6.41667 13.7433V13.2825C6.41667 13.2155 6.47112 13.1615 6.53772 13.1615H12.912C12.979 13.1615 13.033 13.2159 13.033 13.2825V13.7433C13.033 13.8104 12.9786 13.8644 12.912 13.8644ZM12.912 11.2265H6.53772C6.47067 11.2265 6.41667 11.172 6.41667 11.105V10.6446C6.41667 10.5776 6.47112 10.5236 6.53772 10.5236H12.912C12.979 10.5236 13.033 10.578 13.033 10.6446V11.105C13.033 11.172 12.9786 11.2265 12.912 11.2265ZM12.912 8.58904H6.53772C6.47067 8.58904 6.41667 8.53459 6.41667 8.46799V8.00719C6.41667 7.94014 6.47112 7.88614 6.53772 7.88614H12.912C12.979 7.88614 13.033 7.94059 13.033 8.00719V8.46799C13.033 8.53504 12.9786 8.58904 12.912 8.58904Z" fill="currentColor"/>
</g>
</svg>
