<svg width="20" height="21" viewBox="0 0 20 21" fill="none" xmlns="http://www.w3.org/2000/svg">
<g id="MENU">
<path id="Vector" d="M17.8333 6.60243C18.4999 7.26909 18.4999 8.35243 17.8333 8.93576L15.4999 11.2691L8.99992 4.76909L11.3333 2.43576C11.9999 1.76909 13.0833 1.76909 13.6666 2.43576L15.1666 3.93576L17.6666 1.43576L18.8333 2.60243L16.3333 5.10243L17.8333 6.60243ZM12.9999 11.4358L11.8333 10.2691L9.49992 12.6024L7.74992 10.8524L10.0833 8.51909L8.91659 7.35243L6.58325 9.68576L5.33325 8.51909L2.99992 10.8524C2.33325 11.5191 2.33325 12.6024 2.99992 13.1858L4.49992 14.6858L1.16659 18.0191L2.33325 19.1858L5.66659 15.8524L7.16659 17.3524C7.83325 18.0191 8.91659 18.0191 9.49992 17.3524L11.8333 15.0191L10.6666 13.8524L12.9999 11.4358Z" fill="currentColor"/>
</g>
</svg>
