<svg width="31" height="31" viewBox="0 0 31 31" fill="none" xmlns="http://www.w3.org/2000/svg">
<g clip-path="url(#clip0_1_2943)">
<rect width="30.3524" height="30.3524" fill="#D3F4E0"/>
<path d="M24.5393 30.348C24.881 30.3488 25.2219 30.3488 25.5636 30.3488C27.0876 30.3488 28.6116 30.3466 30.1363 30.3524C30.3031 30.3524 30.3638 30.3063 30.3514 30.1366C30.3199 29.7182 30.3265 29.2953 30.2702 28.8805C30.1012 27.6361 29.6981 26.4664 29.0462 25.391C28.0534 23.7538 26.7357 22.4721 24.9293 21.761C23.6614 21.2621 22.3679 21.1801 21.0816 21.6944C19.9769 22.1363 19.2226 22.9074 18.916 24.0874C18.7309 24.7992 18.7412 25.5256 18.7273 26.2469C18.7024 27.533 18.7199 28.8191 18.7207 30.1052C18.7207 30.3473 18.7214 30.348 18.9614 30.348C20.8205 30.348 22.6803 30.348 24.5393 30.348ZM5.81473 30.348C7.66795 30.348 9.5219 30.348 11.3751 30.348C11.6268 30.348 11.6283 30.3473 11.6268 30.0993C11.618 28.6369 11.6166 27.1745 11.5939 25.7121C11.5866 25.2578 11.5536 24.7984 11.479 24.3507C11.261 23.0383 10.4716 22.1743 9.2607 21.693C7.86768 21.1384 6.48929 21.2906 5.14236 21.8722C4.12686 22.3104 3.26061 22.9651 2.51435 23.7779C0.874762 25.5673 0.0172921 27.6705 -0.000267056 30.1059C-0.00173032 30.3473 -0.000267054 30.348 0.236049 30.348C2.09585 30.348 3.95492 30.348 5.81473 30.348ZM0.0333879 0.0183214C6.86315 3.70319 11.1776 9.28279 12.9708 16.8127C12.9876 16.6313 12.9884 16.4528 12.9876 16.2743C12.9752 14.2515 12.9679 12.2288 12.9481 10.206C12.9379 9.16354 12.834 8.12912 12.665 7.09982C12.5165 6.19707 12.3043 5.31262 11.9977 4.45084C11.4344 2.86848 10.5886 1.44852 9.52775 0.150734C9.44142 0.0461207 9.35728 3.24249e-05 9.2212 3.24249e-05C6.22225 0.00369022 3.22329 0.00295866 0.224343 0.00369022C0.167276 0.00369022 0.110941 0.0124689 0.0326563 0.019053L0.0333879 0.0183214ZM30.309 0.0234423C30.2446 0.0146636 30.1992 0.00295866 30.1531 0.00295866C27.1366 0.0022271 24.1194 0.00149554 21.1029 0.00807958C21.0158 0.00807958 20.9024 0.0651412 20.8461 0.133176C19.1033 2.21373 18.0461 4.603 17.6459 7.2849C17.4535 8.5761 17.3745 9.87608 17.3642 11.1797C17.3496 12.9896 17.3598 14.7995 17.3598 16.6094C17.3598 16.6767 17.3598 16.744 17.3598 16.8113C19.1721 9.28425 23.4821 3.70831 30.309 0.0234423ZM19.0836 18.3995C19.0975 18.4105 19.1114 18.4214 19.1253 18.4324C19.1545 18.4148 19.186 18.4002 19.2131 18.3797C20.5432 17.387 22.0262 16.7762 23.6767 16.5706C24.6952 16.4433 25.7056 16.4726 26.7086 16.6884C28.0651 16.9803 29.1647 17.6855 30.0258 18.7689C30.1202 18.8874 30.2109 19.0096 30.3287 19.1625V8.97627C27.0664 9.64784 24.3198 11.1805 22.0745 13.6026C20.7692 15.0102 19.7742 16.6123 19.0836 18.3995ZM11.2259 18.4331L11.2632 18.4039C10.8454 17.2875 10.285 16.2428 9.60311 15.264C7.86914 12.7753 5.59817 10.9515 2.79017 9.8022C1.89758 9.43715 0.977191 9.16354 0.0238767 8.98578V19.1581C0.199468 18.9321 0.339941 18.7338 0.498705 18.5509C1.57347 17.316 2.95259 16.6854 4.56437 16.5369C5.5272 16.4477 6.4849 16.4923 7.43456 16.6957C8.52907 16.9298 9.55116 17.338 10.4942 17.9401C10.7423 18.0981 10.983 18.2693 11.2273 18.4339L11.2259 18.4331Z" fill="white"/>
<path d="M24.5395 30.3479C22.6804 30.3479 20.8206 30.3479 18.9615 30.3479C18.7216 30.3479 18.7208 30.3465 18.7208 30.1051C18.7208 28.819 18.7025 27.5322 18.7274 26.2468C18.7413 25.5255 18.7311 24.7991 18.9162 24.0873C19.2227 22.9073 19.977 22.1362 21.0818 21.6943C22.368 21.18 23.6615 21.262 24.9294 21.7609C26.7358 22.472 28.0535 23.7537 29.0463 25.3909C29.6982 26.4663 30.1013 27.6353 30.2703 28.8804C30.3267 29.2952 30.3201 29.7181 30.3516 30.1365C30.3647 30.3062 30.304 30.3531 30.1365 30.3523C28.6125 30.3465 27.0885 30.3487 25.5638 30.3487C25.2221 30.3487 24.8812 30.3487 24.5395 30.3487V30.3479Z" fill="#00481D"/>
<path d="M24.5395 30.3479C22.6804 30.3479 20.8206 30.3479 18.9615 30.3479C18.7216 30.3479 18.7208 30.3465 18.7208 30.1051C18.7208 28.819 18.7025 27.5322 18.7274 26.2468C18.7413 25.5255 18.7311 24.7991 18.9162 24.0873C19.2227 22.9073 19.977 22.1362 21.0818 21.6943C22.368 21.18 23.6615 21.262 24.9294 21.7609C26.7358 22.472 28.0535 23.7537 29.0463 25.3909C29.6982 26.4663 30.1013 27.6353 30.2703 28.8804C30.3267 29.2952 30.3201 29.7181 30.3516 30.1365C30.3647 30.3062 30.304 30.3531 30.1365 30.3523C28.6125 30.3465 27.0885 30.3487 25.5638 30.3487C25.2221 30.3487 24.8812 30.3487 24.5395 30.3487V30.3479Z" fill="black" fill-opacity="0.2"/>
<path d="M24.5395 30.3479C22.6804 30.3479 20.8206 30.3479 18.9615 30.3479C18.7216 30.3479 18.7208 30.3465 18.7208 30.1051C18.7208 28.819 18.7025 27.5322 18.7274 26.2468C18.7413 25.5255 18.7311 24.7991 18.9162 24.0873C19.2227 22.9073 19.977 22.1362 21.0818 21.6943C22.368 21.18 23.6615 21.262 24.9294 21.7609C26.7358 22.472 28.0535 23.7537 29.0463 25.3909C29.6982 26.4663 30.1013 27.6353 30.2703 28.8804C30.3267 29.2952 30.3201 29.7181 30.3516 30.1365C30.3647 30.3062 30.304 30.3531 30.1365 30.3523C28.6125 30.3465 27.0885 30.3487 25.5638 30.3487C25.2221 30.3487 24.8812 30.3487 24.5395 30.3487V30.3479Z" fill="black" fill-opacity="0.2"/>
<path d="M24.5395 30.3479C22.6804 30.3479 20.8206 30.3479 18.9615 30.3479C18.7216 30.3479 18.7208 30.3465 18.7208 30.1051C18.7208 28.819 18.7025 27.5322 18.7274 26.2468C18.7413 25.5255 18.7311 24.7991 18.9162 24.0873C19.2227 22.9073 19.977 22.1362 21.0818 21.6943C22.368 21.18 23.6615 21.262 24.9294 21.7609C26.7358 22.472 28.0535 23.7537 29.0463 25.3909C29.6982 26.4663 30.1013 27.6353 30.2703 28.8804C30.3267 29.2952 30.3201 29.7181 30.3516 30.1365C30.3647 30.3062 30.304 30.3531 30.1365 30.3523C28.6125 30.3465 27.0885 30.3487 25.5638 30.3487C25.2221 30.3487 24.8812 30.3487 24.5395 30.3487V30.3479Z" fill="black" fill-opacity="0.2"/>
<path d="M24.5395 30.3479C22.6804 30.3479 20.8206 30.3479 18.9615 30.3479C18.7216 30.3479 18.7208 30.3465 18.7208 30.1051C18.7208 28.819 18.7025 27.5322 18.7274 26.2468C18.7413 25.5255 18.7311 24.7991 18.9162 24.0873C19.2227 22.9073 19.977 22.1362 21.0818 21.6943C22.368 21.18 23.6615 21.262 24.9294 21.7609C26.7358 22.472 28.0535 23.7537 29.0463 25.3909C29.6982 26.4663 30.1013 27.6353 30.2703 28.8804C30.3267 29.2952 30.3201 29.7181 30.3516 30.1365C30.3647 30.3062 30.304 30.3531 30.1365 30.3523C28.6125 30.3465 27.0885 30.3487 25.5638 30.3487C25.2221 30.3487 24.8812 30.3487 24.5395 30.3487V30.3479Z" fill="black" fill-opacity="0.2"/>
<path d="M24.5395 30.3479C22.6804 30.3479 20.8206 30.3479 18.9615 30.3479C18.7216 30.3479 18.7208 30.3465 18.7208 30.1051C18.7208 28.819 18.7025 27.5322 18.7274 26.2468C18.7413 25.5255 18.7311 24.7991 18.9162 24.0873C19.2227 22.9073 19.977 22.1362 21.0818 21.6943C22.368 21.18 23.6615 21.262 24.9294 21.7609C26.7358 22.472 28.0535 23.7537 29.0463 25.3909C29.6982 26.4663 30.1013 27.6353 30.2703 28.8804C30.3267 29.2952 30.3201 29.7181 30.3516 30.1365C30.3647 30.3062 30.304 30.3531 30.1365 30.3523C28.6125 30.3465 27.0885 30.3487 25.5638 30.3487C25.2221 30.3487 24.8812 30.3487 24.5395 30.3487V30.3479Z" fill="black" fill-opacity="0.2"/>
<path d="M24.5395 30.3479C22.6804 30.3479 20.8206 30.3479 18.9615 30.3479C18.7216 30.3479 18.7208 30.3465 18.7208 30.1051C18.7208 28.819 18.7025 27.5322 18.7274 26.2468C18.7413 25.5255 18.7311 24.7991 18.9162 24.0873C19.2227 22.9073 19.977 22.1362 21.0818 21.6943C22.368 21.18 23.6615 21.262 24.9294 21.7609C26.7358 22.472 28.0535 23.7537 29.0463 25.3909C29.6982 26.4663 30.1013 27.6353 30.2703 28.8804C30.3267 29.2952 30.3201 29.7181 30.3516 30.1365C30.3647 30.3062 30.304 30.3531 30.1365 30.3523C28.6125 30.3465 27.0885 30.3487 25.5638 30.3487C25.2221 30.3487 24.8812 30.3487 24.5395 30.3487V30.3479Z" fill="black" fill-opacity="0.2"/>
<path d="M24.5395 30.3479C22.6804 30.3479 20.8206 30.3479 18.9615 30.3479C18.7216 30.3479 18.7208 30.3465 18.7208 30.1051C18.7208 28.819 18.7025 27.5322 18.7274 26.2468C18.7413 25.5255 18.7311 24.7991 18.9162 24.0873C19.2227 22.9073 19.977 22.1362 21.0818 21.6943C22.368 21.18 23.6615 21.262 24.9294 21.7609C26.7358 22.472 28.0535 23.7537 29.0463 25.3909C29.6982 26.4663 30.1013 27.6353 30.2703 28.8804C30.3267 29.2952 30.3201 29.7181 30.3516 30.1365C30.3647 30.3062 30.304 30.3531 30.1365 30.3523C28.6125 30.3465 27.0885 30.3487 25.5638 30.3487C25.2221 30.3487 24.8812 30.3487 24.5395 30.3487V30.3479Z" fill="black" fill-opacity="0.2"/>
<path d="M24.5395 30.3479C22.6804 30.3479 20.8206 30.3479 18.9615 30.3479C18.7216 30.3479 18.7208 30.3465 18.7208 30.1051C18.7208 28.819 18.7025 27.5322 18.7274 26.2468C18.7413 25.5255 18.7311 24.7991 18.9162 24.0873C19.2227 22.9073 19.977 22.1362 21.0818 21.6943C22.368 21.18 23.6615 21.262 24.9294 21.7609C26.7358 22.472 28.0535 23.7537 29.0463 25.3909C29.6982 26.4663 30.1013 27.6353 30.2703 28.8804C30.3267 29.2952 30.3201 29.7181 30.3516 30.1365C30.3647 30.3062 30.304 30.3531 30.1365 30.3523C28.6125 30.3465 27.0885 30.3487 25.5638 30.3487C25.2221 30.3487 24.8812 30.3487 24.5395 30.3487V30.3479Z" fill="black" fill-opacity="0.2"/>
<path d="M24.5395 30.3479C22.6804 30.3479 20.8206 30.3479 18.9615 30.3479C18.7216 30.3479 18.7208 30.3465 18.7208 30.1051C18.7208 28.819 18.7025 27.5322 18.7274 26.2468C18.7413 25.5255 18.7311 24.7991 18.9162 24.0873C19.2227 22.9073 19.977 22.1362 21.0818 21.6943C22.368 21.18 23.6615 21.262 24.9294 21.7609C26.7358 22.472 28.0535 23.7537 29.0463 25.3909C29.6982 26.4663 30.1013 27.6353 30.2703 28.8804C30.3267 29.2952 30.3201 29.7181 30.3516 30.1365C30.3647 30.3062 30.304 30.3531 30.1365 30.3523C28.6125 30.3465 27.0885 30.3487 25.5638 30.3487C25.2221 30.3487 24.8812 30.3487 24.5395 30.3487V30.3479Z" fill="black" fill-opacity="0.2"/>
<path d="M24.5395 30.3479C22.6804 30.3479 20.8206 30.3479 18.9615 30.3479C18.7216 30.3479 18.7208 30.3465 18.7208 30.1051C18.7208 28.819 18.7025 27.5322 18.7274 26.2468C18.7413 25.5255 18.7311 24.7991 18.9162 24.0873C19.2227 22.9073 19.977 22.1362 21.0818 21.6943C22.368 21.18 23.6615 21.262 24.9294 21.7609C26.7358 22.472 28.0535 23.7537 29.0463 25.3909C29.6982 26.4663 30.1013 27.6353 30.2703 28.8804C30.3267 29.2952 30.3201 29.7181 30.3516 30.1365C30.3647 30.3062 30.304 30.3531 30.1365 30.3523C28.6125 30.3465 27.0885 30.3487 25.5638 30.3487C25.2221 30.3487 24.8812 30.3487 24.5395 30.3487V30.3479Z" fill="black" fill-opacity="0.2"/>
<path d="M5.81498 30.3489C3.95517 30.3489 2.0961 30.3489 0.236296 30.3489C-2.03464e-05 30.3489 -0.00221524 30.3481 -2.03467e-05 30.1067C0.0175388 27.6714 0.874278 25.5681 2.51532 23.7787C3.26085 22.9652 4.12784 22.3112 5.14334 21.873C6.49027 21.2914 7.86866 21.1393 9.26168 21.6938C10.4725 22.1759 11.2612 23.0391 11.48 24.3515C11.5546 24.7993 11.5875 25.2587 11.5949 25.713C11.6175 27.1754 11.619 28.6378 11.6278 30.1001C11.6292 30.3481 11.6278 30.3489 11.3761 30.3489C9.52288 30.3489 7.66893 30.3489 5.81571 30.3489H5.81498Z" fill="#00481D"/>
<path d="M5.81498 30.3489C3.95517 30.3489 2.0961 30.3489 0.236296 30.3489C-2.03464e-05 30.3489 -0.00221524 30.3481 -2.03467e-05 30.1067C0.0175388 27.6714 0.874278 25.5681 2.51532 23.7787C3.26085 22.9652 4.12784 22.3112 5.14334 21.873C6.49027 21.2914 7.86866 21.1393 9.26168 21.6938C10.4725 22.1759 11.2612 23.0391 11.48 24.3515C11.5546 24.7993 11.5875 25.2587 11.5949 25.713C11.6175 27.1754 11.619 28.6378 11.6278 30.1001C11.6292 30.3481 11.6278 30.3489 11.3761 30.3489C9.52288 30.3489 7.66893 30.3489 5.81571 30.3489H5.81498Z" fill="black" fill-opacity="0.2"/>
<path d="M5.81498 30.3489C3.95517 30.3489 2.0961 30.3489 0.236296 30.3489C-2.03464e-05 30.3489 -0.00221524 30.3481 -2.03467e-05 30.1067C0.0175388 27.6714 0.874278 25.5681 2.51532 23.7787C3.26085 22.9652 4.12784 22.3112 5.14334 21.873C6.49027 21.2914 7.86866 21.1393 9.26168 21.6938C10.4725 22.1759 11.2612 23.0391 11.48 24.3515C11.5546 24.7993 11.5875 25.2587 11.5949 25.713C11.6175 27.1754 11.619 28.6378 11.6278 30.1001C11.6292 30.3481 11.6278 30.3489 11.3761 30.3489C9.52288 30.3489 7.66893 30.3489 5.81571 30.3489H5.81498Z" fill="black" fill-opacity="0.2"/>
<path d="M5.81498 30.3489C3.95517 30.3489 2.0961 30.3489 0.236296 30.3489C-2.03464e-05 30.3489 -0.00221524 30.3481 -2.03467e-05 30.1067C0.0175388 27.6714 0.874278 25.5681 2.51532 23.7787C3.26085 22.9652 4.12784 22.3112 5.14334 21.873C6.49027 21.2914 7.86866 21.1393 9.26168 21.6938C10.4725 22.1759 11.2612 23.0391 11.48 24.3515C11.5546 24.7993 11.5875 25.2587 11.5949 25.713C11.6175 27.1754 11.619 28.6378 11.6278 30.1001C11.6292 30.3481 11.6278 30.3489 11.3761 30.3489C9.52288 30.3489 7.66893 30.3489 5.81571 30.3489H5.81498Z" fill="black" fill-opacity="0.2"/>
<path d="M5.81498 30.3489C3.95517 30.3489 2.0961 30.3489 0.236296 30.3489C-2.03464e-05 30.3489 -0.00221524 30.3481 -2.03467e-05 30.1067C0.0175388 27.6714 0.874278 25.5681 2.51532 23.7787C3.26085 22.9652 4.12784 22.3112 5.14334 21.873C6.49027 21.2914 7.86866 21.1393 9.26168 21.6938C10.4725 22.1759 11.2612 23.0391 11.48 24.3515C11.5546 24.7993 11.5875 25.2587 11.5949 25.713C11.6175 27.1754 11.619 28.6378 11.6278 30.1001C11.6292 30.3481 11.6278 30.3489 11.3761 30.3489C9.52288 30.3489 7.66893 30.3489 5.81571 30.3489H5.81498Z" fill="black" fill-opacity="0.2"/>
<path d="M5.81498 30.3489C3.95517 30.3489 2.0961 30.3489 0.236296 30.3489C-2.03464e-05 30.3489 -0.00221524 30.3481 -2.03467e-05 30.1067C0.0175388 27.6714 0.874278 25.5681 2.51532 23.7787C3.26085 22.9652 4.12784 22.3112 5.14334 21.873C6.49027 21.2914 7.86866 21.1393 9.26168 21.6938C10.4725 22.1759 11.2612 23.0391 11.48 24.3515C11.5546 24.7993 11.5875 25.2587 11.5949 25.713C11.6175 27.1754 11.619 28.6378 11.6278 30.1001C11.6292 30.3481 11.6278 30.3489 11.3761 30.3489C9.52288 30.3489 7.66893 30.3489 5.81571 30.3489H5.81498Z" fill="black" fill-opacity="0.2"/>
<path d="M5.81498 30.3489C3.95517 30.3489 2.0961 30.3489 0.236296 30.3489C-2.03464e-05 30.3489 -0.00221524 30.3481 -2.03467e-05 30.1067C0.0175388 27.6714 0.874278 25.5681 2.51532 23.7787C3.26085 22.9652 4.12784 22.3112 5.14334 21.873C6.49027 21.2914 7.86866 21.1393 9.26168 21.6938C10.4725 22.1759 11.2612 23.0391 11.48 24.3515C11.5546 24.7993 11.5875 25.2587 11.5949 25.713C11.6175 27.1754 11.619 28.6378 11.6278 30.1001C11.6292 30.3481 11.6278 30.3489 11.3761 30.3489C9.52288 30.3489 7.66893 30.3489 5.81571 30.3489H5.81498Z" fill="black" fill-opacity="0.2"/>
<path d="M5.81498 30.3489C3.95517 30.3489 2.0961 30.3489 0.236296 30.3489C-2.03464e-05 30.3489 -0.00221524 30.3481 -2.03467e-05 30.1067C0.0175388 27.6714 0.874278 25.5681 2.51532 23.7787C3.26085 22.9652 4.12784 22.3112 5.14334 21.873C6.49027 21.2914 7.86866 21.1393 9.26168 21.6938C10.4725 22.1759 11.2612 23.0391 11.48 24.3515C11.5546 24.7993 11.5875 25.2587 11.5949 25.713C11.6175 27.1754 11.619 28.6378 11.6278 30.1001C11.6292 30.3481 11.6278 30.3489 11.3761 30.3489C9.52288 30.3489 7.66893 30.3489 5.81571 30.3489H5.81498Z" fill="black" fill-opacity="0.2"/>
<path d="M5.81498 30.3489C3.95517 30.3489 2.0961 30.3489 0.236296 30.3489C-2.03464e-05 30.3489 -0.00221524 30.3481 -2.03467e-05 30.1067C0.0175388 27.6714 0.874278 25.5681 2.51532 23.7787C3.26085 22.9652 4.12784 22.3112 5.14334 21.873C6.49027 21.2914 7.86866 21.1393 9.26168 21.6938C10.4725 22.1759 11.2612 23.0391 11.48 24.3515C11.5546 24.7993 11.5875 25.2587 11.5949 25.713C11.6175 27.1754 11.619 28.6378 11.6278 30.1001C11.6292 30.3481 11.6278 30.3489 11.3761 30.3489C9.52288 30.3489 7.66893 30.3489 5.81571 30.3489H5.81498Z" fill="black" fill-opacity="0.2"/>
<path d="M5.81498 30.3489C3.95517 30.3489 2.0961 30.3489 0.236296 30.3489C-2.03464e-05 30.3489 -0.00221524 30.3481 -2.03467e-05 30.1067C0.0175388 27.6714 0.874278 25.5681 2.51532 23.7787C3.26085 22.9652 4.12784 22.3112 5.14334 21.873C6.49027 21.2914 7.86866 21.1393 9.26168 21.6938C10.4725 22.1759 11.2612 23.0391 11.48 24.3515C11.5546 24.7993 11.5875 25.2587 11.5949 25.713C11.6175 27.1754 11.619 28.6378 11.6278 30.1001C11.6292 30.3481 11.6278 30.3489 11.3761 30.3489C9.52288 30.3489 7.66893 30.3489 5.81571 30.3489H5.81498Z" fill="black" fill-opacity="0.2"/>
<path d="M5.81498 30.3489C3.95517 30.3489 2.0961 30.3489 0.236296 30.3489C-2.03464e-05 30.3489 -0.00221524 30.3481 -2.03467e-05 30.1067C0.0175388 27.6714 0.874278 25.5681 2.51532 23.7787C3.26085 22.9652 4.12784 22.3112 5.14334 21.873C6.49027 21.2914 7.86866 21.1393 9.26168 21.6938C10.4725 22.1759 11.2612 23.0391 11.48 24.3515C11.5546 24.7993 11.5875 25.2587 11.5949 25.713C11.6175 27.1754 11.619 28.6378 11.6278 30.1001C11.6292 30.3481 11.6278 30.3489 11.3761 30.3489C9.52288 30.3489 7.66893 30.3489 5.81571 30.3489H5.81498Z" fill="black" fill-opacity="0.2"/>
<path d="M0.0339489 0.018289C0.111502 0.0124365 0.168569 0.0036578 0.224904 0.0036578C3.22386 0.00292624 6.22281 0.0036578 9.22176 0C9.35857 0 9.44271 0.0460882 9.52831 0.150701C10.5892 1.44849 11.4349 2.86844 11.9983 4.45081C12.3048 5.31258 12.517 6.19704 12.6655 7.09978C12.8345 8.12909 12.9384 9.16424 12.9487 10.206C12.9684 12.2287 12.9757 14.2515 12.9882 16.2743C12.9889 16.4528 12.9882 16.6313 12.9714 16.8127C11.1781 9.28276 6.86298 3.70315 0.0339489 0.018289Z" fill="#00481D"/>
<path d="M0.0339489 0.018289C0.111502 0.0124365 0.168569 0.0036578 0.224904 0.0036578C3.22386 0.00292624 6.22281 0.0036578 9.22176 0C9.35857 0 9.44271 0.0460882 9.52831 0.150701C10.5892 1.44849 11.4349 2.86844 11.9983 4.45081C12.3048 5.31258 12.517 6.19704 12.6655 7.09978C12.8345 8.12909 12.9384 9.16424 12.9487 10.206C12.9684 12.2287 12.9757 14.2515 12.9882 16.2743C12.9889 16.4528 12.9882 16.6313 12.9714 16.8127C11.1781 9.28276 6.86298 3.70315 0.0339489 0.018289Z" fill="black" fill-opacity="0.2"/>
<path d="M0.0339489 0.018289C0.111502 0.0124365 0.168569 0.0036578 0.224904 0.0036578C3.22386 0.00292624 6.22281 0.0036578 9.22176 0C9.35857 0 9.44271 0.0460882 9.52831 0.150701C10.5892 1.44849 11.4349 2.86844 11.9983 4.45081C12.3048 5.31258 12.517 6.19704 12.6655 7.09978C12.8345 8.12909 12.9384 9.16424 12.9487 10.206C12.9684 12.2287 12.9757 14.2515 12.9882 16.2743C12.9889 16.4528 12.9882 16.6313 12.9714 16.8127C11.1781 9.28276 6.86298 3.70315 0.0339489 0.018289Z" fill="black" fill-opacity="0.2"/>
<path d="M0.0339489 0.018289C0.111502 0.0124365 0.168569 0.0036578 0.224904 0.0036578C3.22386 0.00292624 6.22281 0.0036578 9.22176 0C9.35857 0 9.44271 0.0460882 9.52831 0.150701C10.5892 1.44849 11.4349 2.86844 11.9983 4.45081C12.3048 5.31258 12.517 6.19704 12.6655 7.09978C12.8345 8.12909 12.9384 9.16424 12.9487 10.206C12.9684 12.2287 12.9757 14.2515 12.9882 16.2743C12.9889 16.4528 12.9882 16.6313 12.9714 16.8127C11.1781 9.28276 6.86298 3.70315 0.0339489 0.018289Z" fill="black" fill-opacity="0.2"/>
<path d="M0.0339489 0.018289C0.111502 0.0124365 0.168569 0.0036578 0.224904 0.0036578C3.22386 0.00292624 6.22281 0.0036578 9.22176 0C9.35857 0 9.44271 0.0460882 9.52831 0.150701C10.5892 1.44849 11.4349 2.86844 11.9983 4.45081C12.3048 5.31258 12.517 6.19704 12.6655 7.09978C12.8345 8.12909 12.9384 9.16424 12.9487 10.206C12.9684 12.2287 12.9757 14.2515 12.9882 16.2743C12.9889 16.4528 12.9882 16.6313 12.9714 16.8127C11.1781 9.28276 6.86298 3.70315 0.0339489 0.018289Z" fill="black" fill-opacity="0.2"/>
<path d="M0.0339489 0.018289C0.111502 0.0124365 0.168569 0.0036578 0.224904 0.0036578C3.22386 0.00292624 6.22281 0.0036578 9.22176 0C9.35857 0 9.44271 0.0460882 9.52831 0.150701C10.5892 1.44849 11.4349 2.86844 11.9983 4.45081C12.3048 5.31258 12.517 6.19704 12.6655 7.09978C12.8345 8.12909 12.9384 9.16424 12.9487 10.206C12.9684 12.2287 12.9757 14.2515 12.9882 16.2743C12.9889 16.4528 12.9882 16.6313 12.9714 16.8127C11.1781 9.28276 6.86298 3.70315 0.0339489 0.018289Z" fill="black" fill-opacity="0.2"/>
<path d="M0.0339489 0.018289C0.111502 0.0124365 0.168569 0.0036578 0.224904 0.0036578C3.22386 0.00292624 6.22281 0.0036578 9.22176 0C9.35857 0 9.44271 0.0460882 9.52831 0.150701C10.5892 1.44849 11.4349 2.86844 11.9983 4.45081C12.3048 5.31258 12.517 6.19704 12.6655 7.09978C12.8345 8.12909 12.9384 9.16424 12.9487 10.206C12.9684 12.2287 12.9757 14.2515 12.9882 16.2743C12.9889 16.4528 12.9882 16.6313 12.9714 16.8127C11.1781 9.28276 6.86298 3.70315 0.0339489 0.018289Z" fill="black" fill-opacity="0.2"/>
<path d="M0.0339489 0.018289C0.111502 0.0124365 0.168569 0.0036578 0.224904 0.0036578C3.22386 0.00292624 6.22281 0.0036578 9.22176 0C9.35857 0 9.44271 0.0460882 9.52831 0.150701C10.5892 1.44849 11.4349 2.86844 11.9983 4.45081C12.3048 5.31258 12.517 6.19704 12.6655 7.09978C12.8345 8.12909 12.9384 9.16424 12.9487 10.206C12.9684 12.2287 12.9757 14.2515 12.9882 16.2743C12.9889 16.4528 12.9882 16.6313 12.9714 16.8127C11.1781 9.28276 6.86298 3.70315 0.0339489 0.018289Z" fill="black" fill-opacity="0.2"/>
<path d="M0.0339489 0.018289C0.111502 0.0124365 0.168569 0.0036578 0.224904 0.0036578C3.22386 0.00292624 6.22281 0.0036578 9.22176 0C9.35857 0 9.44271 0.0460882 9.52831 0.150701C10.5892 1.44849 11.4349 2.86844 11.9983 4.45081C12.3048 5.31258 12.517 6.19704 12.6655 7.09978C12.8345 8.12909 12.9384 9.16424 12.9487 10.206C12.9684 12.2287 12.9757 14.2515 12.9882 16.2743C12.9889 16.4528 12.9882 16.6313 12.9714 16.8127C11.1781 9.28276 6.86298 3.70315 0.0339489 0.018289Z" fill="black" fill-opacity="0.2"/>
<path d="M0.0339489 0.018289C0.111502 0.0124365 0.168569 0.0036578 0.224904 0.0036578C3.22386 0.00292624 6.22281 0.0036578 9.22176 0C9.35857 0 9.44271 0.0460882 9.52831 0.150701C10.5892 1.44849 11.4349 2.86844 11.9983 4.45081C12.3048 5.31258 12.517 6.19704 12.6655 7.09978C12.8345 8.12909 12.9384 9.16424 12.9487 10.206C12.9684 12.2287 12.9757 14.2515 12.9882 16.2743C12.9889 16.4528 12.9882 16.6313 12.9714 16.8127C11.1781 9.28276 6.86298 3.70315 0.0339489 0.018289Z" fill="black" fill-opacity="0.2"/>
<path d="M0.0339489 0.018289C0.111502 0.0124365 0.168569 0.0036578 0.224904 0.0036578C3.22386 0.00292624 6.22281 0.0036578 9.22176 0C9.35857 0 9.44271 0.0460882 9.52831 0.150701C10.5892 1.44849 11.4349 2.86844 11.9983 4.45081C12.3048 5.31258 12.517 6.19704 12.6655 7.09978C12.8345 8.12909 12.9384 9.16424 12.9487 10.206C12.9684 12.2287 12.9757 14.2515 12.9882 16.2743C12.9889 16.4528 12.9882 16.6313 12.9714 16.8127C11.1781 9.28276 6.86298 3.70315 0.0339489 0.018289Z" fill="black" fill-opacity="0.2"/>
<path d="M30.3092 0.0235117C23.4824 3.70838 19.1723 9.28432 17.3594 16.8113C17.3594 16.744 17.3594 16.6767 17.3594 16.6094C17.3594 14.7995 17.3491 12.9897 17.3637 11.1798C17.374 9.87689 17.453 8.57617 17.6454 7.28497C18.0456 4.60307 19.1028 2.2138 20.8456 0.133246C20.9026 0.0652106 21.0153 0.00814898 21.1024 0.00814898C24.1189 0.00156494 27.1361 0.0022965 30.1526 0.00302806C30.198 0.00302806 30.2441 0.014733 30.3085 0.0235117H30.3092Z" fill="#00481D"/>
<path d="M30.3092 0.0235117C23.4824 3.70838 19.1723 9.28432 17.3594 16.8113C17.3594 16.744 17.3594 16.6767 17.3594 16.6094C17.3594 14.7995 17.3491 12.9897 17.3637 11.1798C17.374 9.87689 17.453 8.57617 17.6454 7.28497C18.0456 4.60307 19.1028 2.2138 20.8456 0.133246C20.9026 0.0652106 21.0153 0.00814898 21.1024 0.00814898C24.1189 0.00156494 27.1361 0.0022965 30.1526 0.00302806C30.198 0.00302806 30.2441 0.014733 30.3085 0.0235117H30.3092Z" fill="black" fill-opacity="0.2"/>
<path d="M30.3092 0.0235117C23.4824 3.70838 19.1723 9.28432 17.3594 16.8113C17.3594 16.744 17.3594 16.6767 17.3594 16.6094C17.3594 14.7995 17.3491 12.9897 17.3637 11.1798C17.374 9.87689 17.453 8.57617 17.6454 7.28497C18.0456 4.60307 19.1028 2.2138 20.8456 0.133246C20.9026 0.0652106 21.0153 0.00814898 21.1024 0.00814898C24.1189 0.00156494 27.1361 0.0022965 30.1526 0.00302806C30.198 0.00302806 30.2441 0.014733 30.3085 0.0235117H30.3092Z" fill="black" fill-opacity="0.2"/>
<path d="M30.3092 0.0235117C23.4824 3.70838 19.1723 9.28432 17.3594 16.8113C17.3594 16.744 17.3594 16.6767 17.3594 16.6094C17.3594 14.7995 17.3491 12.9897 17.3637 11.1798C17.374 9.87689 17.453 8.57617 17.6454 7.28497C18.0456 4.60307 19.1028 2.2138 20.8456 0.133246C20.9026 0.0652106 21.0153 0.00814898 21.1024 0.00814898C24.1189 0.00156494 27.1361 0.0022965 30.1526 0.00302806C30.198 0.00302806 30.2441 0.014733 30.3085 0.0235117H30.3092Z" fill="black" fill-opacity="0.2"/>
<path d="M30.3092 0.0235117C23.4824 3.70838 19.1723 9.28432 17.3594 16.8113C17.3594 16.744 17.3594 16.6767 17.3594 16.6094C17.3594 14.7995 17.3491 12.9897 17.3637 11.1798C17.374 9.87689 17.453 8.57617 17.6454 7.28497C18.0456 4.60307 19.1028 2.2138 20.8456 0.133246C20.9026 0.0652106 21.0153 0.00814898 21.1024 0.00814898C24.1189 0.00156494 27.1361 0.0022965 30.1526 0.00302806C30.198 0.00302806 30.2441 0.014733 30.3085 0.0235117H30.3092Z" fill="black" fill-opacity="0.2"/>
<path d="M30.3092 0.0235117C23.4824 3.70838 19.1723 9.28432 17.3594 16.8113C17.3594 16.744 17.3594 16.6767 17.3594 16.6094C17.3594 14.7995 17.3491 12.9897 17.3637 11.1798C17.374 9.87689 17.453 8.57617 17.6454 7.28497C18.0456 4.60307 19.1028 2.2138 20.8456 0.133246C20.9026 0.0652106 21.0153 0.00814898 21.1024 0.00814898C24.1189 0.00156494 27.1361 0.0022965 30.1526 0.00302806C30.198 0.00302806 30.2441 0.014733 30.3085 0.0235117H30.3092Z" fill="black" fill-opacity="0.2"/>
<path d="M30.3092 0.0235117C23.4824 3.70838 19.1723 9.28432 17.3594 16.8113C17.3594 16.744 17.3594 16.6767 17.3594 16.6094C17.3594 14.7995 17.3491 12.9897 17.3637 11.1798C17.374 9.87689 17.453 8.57617 17.6454 7.28497C18.0456 4.60307 19.1028 2.2138 20.8456 0.133246C20.9026 0.0652106 21.0153 0.00814898 21.1024 0.00814898C24.1189 0.00156494 27.1361 0.0022965 30.1526 0.00302806C30.198 0.00302806 30.2441 0.014733 30.3085 0.0235117H30.3092Z" fill="black" fill-opacity="0.2"/>
<path d="M30.3092 0.0235117C23.4824 3.70838 19.1723 9.28432 17.3594 16.8113C17.3594 16.744 17.3594 16.6767 17.3594 16.6094C17.3594 14.7995 17.3491 12.9897 17.3637 11.1798C17.374 9.87689 17.453 8.57617 17.6454 7.28497C18.0456 4.60307 19.1028 2.2138 20.8456 0.133246C20.9026 0.0652106 21.0153 0.00814898 21.1024 0.00814898C24.1189 0.00156494 27.1361 0.0022965 30.1526 0.00302806C30.198 0.00302806 30.2441 0.014733 30.3085 0.0235117H30.3092Z" fill="black" fill-opacity="0.2"/>
<path d="M30.3092 0.0235117C23.4824 3.70838 19.1723 9.28432 17.3594 16.8113C17.3594 16.744 17.3594 16.6767 17.3594 16.6094C17.3594 14.7995 17.3491 12.9897 17.3637 11.1798C17.374 9.87689 17.453 8.57617 17.6454 7.28497C18.0456 4.60307 19.1028 2.2138 20.8456 0.133246C20.9026 0.0652106 21.0153 0.00814898 21.1024 0.00814898C24.1189 0.00156494 27.1361 0.0022965 30.1526 0.00302806C30.198 0.00302806 30.2441 0.014733 30.3085 0.0235117H30.3092Z" fill="black" fill-opacity="0.2"/>
<path d="M30.3092 0.0235117C23.4824 3.70838 19.1723 9.28432 17.3594 16.8113C17.3594 16.744 17.3594 16.6767 17.3594 16.6094C17.3594 14.7995 17.3491 12.9897 17.3637 11.1798C17.374 9.87689 17.453 8.57617 17.6454 7.28497C18.0456 4.60307 19.1028 2.2138 20.8456 0.133246C20.9026 0.0652106 21.0153 0.00814898 21.1024 0.00814898C24.1189 0.00156494 27.1361 0.0022965 30.1526 0.00302806C30.198 0.00302806 30.2441 0.014733 30.3085 0.0235117H30.3092Z" fill="black" fill-opacity="0.2"/>
<path d="M30.3092 0.0235117C23.4824 3.70838 19.1723 9.28432 17.3594 16.8113C17.3594 16.744 17.3594 16.6767 17.3594 16.6094C17.3594 14.7995 17.3491 12.9897 17.3637 11.1798C17.374 9.87689 17.453 8.57617 17.6454 7.28497C18.0456 4.60307 19.1028 2.2138 20.8456 0.133246C20.9026 0.0652106 21.0153 0.00814898 21.1024 0.00814898C24.1189 0.00156494 27.1361 0.0022965 30.1526 0.00302806C30.198 0.00302806 30.2441 0.014733 30.3085 0.0235117H30.3092Z" fill="black" fill-opacity="0.2"/>
<path d="M19.0837 18.3994C19.7744 16.6129 20.7694 15.0108 22.0746 13.6026C24.32 11.1804 27.0665 9.64848 30.3289 8.97618V19.161C30.2118 19.0081 30.1211 18.8866 30.026 18.7674C29.1648 17.6839 28.0652 16.978 26.7088 16.6868C25.7057 16.471 24.6953 16.4425 23.6769 16.569C22.0263 16.7753 20.5433 17.3855 19.2132 18.3782C19.1861 18.3987 19.1547 18.4133 19.1254 18.4309C19.1115 18.4199 19.0976 18.4089 19.0837 18.3979V18.3994Z" fill="#00481D"/>
<path d="M19.0837 18.3994C19.7744 16.6129 20.7694 15.0108 22.0746 13.6026C24.32 11.1804 27.0665 9.64848 30.3289 8.97618V19.161C30.2118 19.0081 30.1211 18.8866 30.026 18.7674C29.1648 17.6839 28.0652 16.978 26.7088 16.6868C25.7057 16.471 24.6953 16.4425 23.6769 16.569C22.0263 16.7753 20.5433 17.3855 19.2132 18.3782C19.1861 18.3987 19.1547 18.4133 19.1254 18.4309C19.1115 18.4199 19.0976 18.4089 19.0837 18.3979V18.3994Z" fill="black" fill-opacity="0.2"/>
<path d="M19.0837 18.3994C19.7744 16.6129 20.7694 15.0108 22.0746 13.6026C24.32 11.1804 27.0665 9.64848 30.3289 8.97618V19.161C30.2118 19.0081 30.1211 18.8866 30.026 18.7674C29.1648 17.6839 28.0652 16.978 26.7088 16.6868C25.7057 16.471 24.6953 16.4425 23.6769 16.569C22.0263 16.7753 20.5433 17.3855 19.2132 18.3782C19.1861 18.3987 19.1547 18.4133 19.1254 18.4309C19.1115 18.4199 19.0976 18.4089 19.0837 18.3979V18.3994Z" fill="black" fill-opacity="0.2"/>
<path d="M19.0837 18.3994C19.7744 16.6129 20.7694 15.0108 22.0746 13.6026C24.32 11.1804 27.0665 9.64848 30.3289 8.97618V19.161C30.2118 19.0081 30.1211 18.8866 30.026 18.7674C29.1648 17.6839 28.0652 16.978 26.7088 16.6868C25.7057 16.471 24.6953 16.4425 23.6769 16.569C22.0263 16.7753 20.5433 17.3855 19.2132 18.3782C19.1861 18.3987 19.1547 18.4133 19.1254 18.4309C19.1115 18.4199 19.0976 18.4089 19.0837 18.3979V18.3994Z" fill="black" fill-opacity="0.2"/>
<path d="M19.0837 18.3994C19.7744 16.6129 20.7694 15.0108 22.0746 13.6026C24.32 11.1804 27.0665 9.64848 30.3289 8.97618V19.161C30.2118 19.0081 30.1211 18.8866 30.026 18.7674C29.1648 17.6839 28.0652 16.978 26.7088 16.6868C25.7057 16.471 24.6953 16.4425 23.6769 16.569C22.0263 16.7753 20.5433 17.3855 19.2132 18.3782C19.1861 18.3987 19.1547 18.4133 19.1254 18.4309C19.1115 18.4199 19.0976 18.4089 19.0837 18.3979V18.3994Z" fill="black" fill-opacity="0.2"/>
<path d="M19.0837 18.3994C19.7744 16.6129 20.7694 15.0108 22.0746 13.6026C24.32 11.1804 27.0665 9.64848 30.3289 8.97618V19.161C30.2118 19.0081 30.1211 18.8866 30.026 18.7674C29.1648 17.6839 28.0652 16.978 26.7088 16.6868C25.7057 16.471 24.6953 16.4425 23.6769 16.569C22.0263 16.7753 20.5433 17.3855 19.2132 18.3782C19.1861 18.3987 19.1547 18.4133 19.1254 18.4309C19.1115 18.4199 19.0976 18.4089 19.0837 18.3979V18.3994Z" fill="black" fill-opacity="0.2"/>
<path d="M19.0837 18.3994C19.7744 16.6129 20.7694 15.0108 22.0746 13.6026C24.32 11.1804 27.0665 9.64848 30.3289 8.97618V19.161C30.2118 19.0081 30.1211 18.8866 30.026 18.7674C29.1648 17.6839 28.0652 16.978 26.7088 16.6868C25.7057 16.471 24.6953 16.4425 23.6769 16.569C22.0263 16.7753 20.5433 17.3855 19.2132 18.3782C19.1861 18.3987 19.1547 18.4133 19.1254 18.4309C19.1115 18.4199 19.0976 18.4089 19.0837 18.3979V18.3994Z" fill="black" fill-opacity="0.2"/>
<path d="M19.0837 18.3994C19.7744 16.6129 20.7694 15.0108 22.0746 13.6026C24.32 11.1804 27.0665 9.64848 30.3289 8.97618V19.161C30.2118 19.0081 30.1211 18.8866 30.026 18.7674C29.1648 17.6839 28.0652 16.978 26.7088 16.6868C25.7057 16.471 24.6953 16.4425 23.6769 16.569C22.0263 16.7753 20.5433 17.3855 19.2132 18.3782C19.1861 18.3987 19.1547 18.4133 19.1254 18.4309C19.1115 18.4199 19.0976 18.4089 19.0837 18.3979V18.3994Z" fill="black" fill-opacity="0.2"/>
<path d="M19.0837 18.3994C19.7744 16.6129 20.7694 15.0108 22.0746 13.6026C24.32 11.1804 27.0665 9.64848 30.3289 8.97618V19.161C30.2118 19.0081 30.1211 18.8866 30.026 18.7674C29.1648 17.6839 28.0652 16.978 26.7088 16.6868C25.7057 16.471 24.6953 16.4425 23.6769 16.569C22.0263 16.7753 20.5433 17.3855 19.2132 18.3782C19.1861 18.3987 19.1547 18.4133 19.1254 18.4309C19.1115 18.4199 19.0976 18.4089 19.0837 18.3979V18.3994Z" fill="black" fill-opacity="0.2"/>
<path d="M19.0837 18.3994C19.7744 16.6129 20.7694 15.0108 22.0746 13.6026C24.32 11.1804 27.0665 9.64848 30.3289 8.97618V19.161C30.2118 19.0081 30.1211 18.8866 30.026 18.7674C29.1648 17.6839 28.0652 16.978 26.7088 16.6868C25.7057 16.471 24.6953 16.4425 23.6769 16.569C22.0263 16.7753 20.5433 17.3855 19.2132 18.3782C19.1861 18.3987 19.1547 18.4133 19.1254 18.4309C19.1115 18.4199 19.0976 18.4089 19.0837 18.3979V18.3994Z" fill="black" fill-opacity="0.2"/>
<path d="M19.0837 18.3994C19.7744 16.6129 20.7694 15.0108 22.0746 13.6026C24.32 11.1804 27.0665 9.64848 30.3289 8.97618V19.161C30.2118 19.0081 30.1211 18.8866 30.026 18.7674C29.1648 17.6839 28.0652 16.978 26.7088 16.6868C25.7057 16.471 24.6953 16.4425 23.6769 16.569C22.0263 16.7753 20.5433 17.3855 19.2132 18.3782C19.1861 18.3987 19.1547 18.4133 19.1254 18.4309C19.1115 18.4199 19.0976 18.4089 19.0837 18.3979V18.3994Z" fill="black" fill-opacity="0.2"/>
<path d="M11.2261 18.4332C10.9817 18.2679 10.7417 18.0975 10.493 17.9394C9.54992 17.3374 8.5271 16.9299 7.43331 16.6951C6.48439 16.4917 5.52669 16.4478 4.56313 16.5363C2.95135 16.6848 1.57223 17.3154 0.497462 18.5503C0.338699 18.7325 0.198226 18.9314 0.0226345 19.1575V8.98516C0.975948 9.16366 1.89707 9.43653 2.78893 9.80158C5.59692 10.9509 7.86863 12.7746 9.60187 15.2634C10.2837 16.2422 10.8442 17.2862 11.2619 18.4033L11.2246 18.4325L11.2261 18.4332Z" fill="#00481D"/>
<path d="M11.2261 18.4332C10.9817 18.2679 10.7417 18.0975 10.493 17.9394C9.54992 17.3374 8.5271 16.9299 7.43331 16.6951C6.48439 16.4917 5.52669 16.4478 4.56313 16.5363C2.95135 16.6848 1.57223 17.3154 0.497462 18.5503C0.338699 18.7325 0.198226 18.9314 0.0226345 19.1575V8.98516C0.975948 9.16366 1.89707 9.43653 2.78893 9.80158C5.59692 10.9509 7.86863 12.7746 9.60187 15.2634C10.2837 16.2422 10.8442 17.2862 11.2619 18.4033L11.2246 18.4325L11.2261 18.4332Z" fill="black" fill-opacity="0.2"/>
<path d="M11.2261 18.4332C10.9817 18.2679 10.7417 18.0975 10.493 17.9394C9.54992 17.3374 8.5271 16.9299 7.43331 16.6951C6.48439 16.4917 5.52669 16.4478 4.56313 16.5363C2.95135 16.6848 1.57223 17.3154 0.497462 18.5503C0.338699 18.7325 0.198226 18.9314 0.0226345 19.1575V8.98516C0.975948 9.16366 1.89707 9.43653 2.78893 9.80158C5.59692 10.9509 7.86863 12.7746 9.60187 15.2634C10.2837 16.2422 10.8442 17.2862 11.2619 18.4033L11.2246 18.4325L11.2261 18.4332Z" fill="black" fill-opacity="0.2"/>
<path d="M11.2261 18.4332C10.9817 18.2679 10.7417 18.0975 10.493 17.9394C9.54992 17.3374 8.5271 16.9299 7.43331 16.6951C6.48439 16.4917 5.52669 16.4478 4.56313 16.5363C2.95135 16.6848 1.57223 17.3154 0.497462 18.5503C0.338699 18.7325 0.198226 18.9314 0.0226345 19.1575V8.98516C0.975948 9.16366 1.89707 9.43653 2.78893 9.80158C5.59692 10.9509 7.86863 12.7746 9.60187 15.2634C10.2837 16.2422 10.8442 17.2862 11.2619 18.4033L11.2246 18.4325L11.2261 18.4332Z" fill="black" fill-opacity="0.2"/>
<path d="M11.2261 18.4332C10.9817 18.2679 10.7417 18.0975 10.493 17.9394C9.54992 17.3374 8.5271 16.9299 7.43331 16.6951C6.48439 16.4917 5.52669 16.4478 4.56313 16.5363C2.95135 16.6848 1.57223 17.3154 0.497462 18.5503C0.338699 18.7325 0.198226 18.9314 0.0226345 19.1575V8.98516C0.975948 9.16366 1.89707 9.43653 2.78893 9.80158C5.59692 10.9509 7.86863 12.7746 9.60187 15.2634C10.2837 16.2422 10.8442 17.2862 11.2619 18.4033L11.2246 18.4325L11.2261 18.4332Z" fill="black" fill-opacity="0.2"/>
<path d="M11.2261 18.4332C10.9817 18.2679 10.7417 18.0975 10.493 17.9394C9.54992 17.3374 8.5271 16.9299 7.43331 16.6951C6.48439 16.4917 5.52669 16.4478 4.56313 16.5363C2.95135 16.6848 1.57223 17.3154 0.497462 18.5503C0.338699 18.7325 0.198226 18.9314 0.0226345 19.1575V8.98516C0.975948 9.16366 1.89707 9.43653 2.78893 9.80158C5.59692 10.9509 7.86863 12.7746 9.60187 15.2634C10.2837 16.2422 10.8442 17.2862 11.2619 18.4033L11.2246 18.4325L11.2261 18.4332Z" fill="black" fill-opacity="0.2"/>
<path d="M11.2261 18.4332C10.9817 18.2679 10.7417 18.0975 10.493 17.9394C9.54992 17.3374 8.5271 16.9299 7.43331 16.6951C6.48439 16.4917 5.52669 16.4478 4.56313 16.5363C2.95135 16.6848 1.57223 17.3154 0.497462 18.5503C0.338699 18.7325 0.198226 18.9314 0.0226345 19.1575V8.98516C0.975948 9.16366 1.89707 9.43653 2.78893 9.80158C5.59692 10.9509 7.86863 12.7746 9.60187 15.2634C10.2837 16.2422 10.8442 17.2862 11.2619 18.4033L11.2246 18.4325L11.2261 18.4332Z" fill="black" fill-opacity="0.2"/>
<path d="M11.2261 18.4332C10.9817 18.2679 10.7417 18.0975 10.493 17.9394C9.54992 17.3374 8.5271 16.9299 7.43331 16.6951C6.48439 16.4917 5.52669 16.4478 4.56313 16.5363C2.95135 16.6848 1.57223 17.3154 0.497462 18.5503C0.338699 18.7325 0.198226 18.9314 0.0226345 19.1575V8.98516C0.975948 9.16366 1.89707 9.43653 2.78893 9.80158C5.59692 10.9509 7.86863 12.7746 9.60187 15.2634C10.2837 16.2422 10.8442 17.2862 11.2619 18.4033L11.2246 18.4325L11.2261 18.4332Z" fill="black" fill-opacity="0.2"/>
<path d="M11.2261 18.4332C10.9817 18.2679 10.7417 18.0975 10.493 17.9394C9.54992 17.3374 8.5271 16.9299 7.43331 16.6951C6.48439 16.4917 5.52669 16.4478 4.56313 16.5363C2.95135 16.6848 1.57223 17.3154 0.497462 18.5503C0.338699 18.7325 0.198226 18.9314 0.0226345 19.1575V8.98516C0.975948 9.16366 1.89707 9.43653 2.78893 9.80158C5.59692 10.9509 7.86863 12.7746 9.60187 15.2634C10.2837 16.2422 10.8442 17.2862 11.2619 18.4033L11.2246 18.4325L11.2261 18.4332Z" fill="black" fill-opacity="0.2"/>
<path d="M11.2261 18.4332C10.9817 18.2679 10.7417 18.0975 10.493 17.9394C9.54992 17.3374 8.5271 16.9299 7.43331 16.6951C6.48439 16.4917 5.52669 16.4478 4.56313 16.5363C2.95135 16.6848 1.57223 17.3154 0.497462 18.5503C0.338699 18.7325 0.198226 18.9314 0.0226345 19.1575V8.98516C0.975948 9.16366 1.89707 9.43653 2.78893 9.80158C5.59692 10.9509 7.86863 12.7746 9.60187 15.2634C10.2837 16.2422 10.8442 17.2862 11.2619 18.4033L11.2246 18.4325L11.2261 18.4332Z" fill="black" fill-opacity="0.2"/>
<path d="M11.2261 18.4332C10.9817 18.2679 10.7417 18.0975 10.493 17.9394C9.54992 17.3374 8.5271 16.9299 7.43331 16.6951C6.48439 16.4917 5.52669 16.4478 4.56313 16.5363C2.95135 16.6848 1.57223 17.3154 0.497462 18.5503C0.338699 18.7325 0.198226 18.9314 0.0226345 19.1575V8.98516C0.975948 9.16366 1.89707 9.43653 2.78893 9.80158C5.59692 10.9509 7.86863 12.7746 9.60187 15.2634C10.2837 16.2422 10.8442 17.2862 11.2619 18.4033L11.2246 18.4325L11.2261 18.4332Z" fill="black" fill-opacity="0.2"/>
</g>
<defs>
<clipPath id="clip0_1_2943">
<rect width="30.3524" height="30.3524" fill="white"/>
</clipPath>
</defs>
</svg>
